<svg width="24" height="24" viewBox="0 0 24 24" fill="none" xmlns="http://www.w3.org/2000/svg">
    <path d="M12.75 7.5V11.5753L16.1362 13.6069C16.3068 13.7093 16.4297 13.8753 16.4779 14.0684C16.526 14.2614 16.4956 14.4657 16.3931 14.6363C16.2907 14.8068 16.1247 14.9297 15.9316 14.9779C15.7386 15.0261 15.5343 14.9956 15.3637 14.8931L11.6137 12.6431C11.5028 12.5764 11.4109 12.4822 11.3472 12.3695C11.2834 12.2568 11.25 12.1295 11.25 12V7.5C11.25 7.30109 11.329 7.11033 11.4697 6.96967C11.6103 6.82902 11.8011 6.75 12 6.75C12.1989 6.75 12.3897 6.82902 12.5303 6.96967C12.671 7.11033 12.75 7.30109 12.75 7.5ZM21.2869 5.30719C21.1498 5.25034 20.999 5.23541 20.8535 5.26428C20.708 5.29315 20.5743 5.36452 20.4694 5.46938L19.3125 6.62907C19.0097 6.3 18.6975 5.97282 18.3656 5.63625C17.1149 4.38535 15.5232 3.53078 13.7895 3.17931C12.0559 2.82783 10.257 2.99505 8.61786 3.66007C6.97868 4.32508 5.57182 5.4584 4.57306 6.91842C3.57431 8.37844 3.02795 10.1004 3.00226 11.8692C2.97657 13.6379 3.47269 15.375 4.42862 16.8634C5.38455 18.3518 6.7579 19.5255 8.37708 20.2379C9.99626 20.9502 11.7895 21.1696 13.5326 20.8686C15.2758 20.5677 16.8916 19.7597 18.1781 18.5456C18.2498 18.4779 18.3074 18.3968 18.3477 18.3068C18.388 18.2168 18.4101 18.1198 18.4129 18.0212C18.4157 17.9227 18.399 17.8245 18.3639 17.7324C18.3288 17.6403 18.2758 17.556 18.2081 17.4844C18.1404 17.4127 18.0592 17.3551 17.9693 17.3148C17.8793 17.2745 17.7823 17.2524 17.6837 17.2496C17.5852 17.2468 17.487 17.2635 17.3949 17.2986C17.3028 17.3337 17.2185 17.3867 17.1469 17.4544C16.0748 18.4659 14.7285 19.1392 13.276 19.39C11.8236 19.6409 10.3294 19.4582 8.98021 18.8647C7.63099 18.2713 6.48653 17.2935 5.6898 16.0535C4.89307 14.8134 4.4794 13.3661 4.50046 11.8923C4.52152 10.4185 4.97637 8.98355 5.8082 7.76676C6.64004 6.54997 7.81196 5.60525 9.17759 5.05063C10.5432 4.49601 12.042 4.35608 13.4867 4.64831C14.9314 4.94054 16.2579 5.65198 17.3006 6.69375C17.6325 7.02938 17.9447 7.35938 18.2484 7.69032L16.7194 9.21938C16.6144 9.32427 16.5428 9.45796 16.5139 9.60352C16.4849 9.74909 16.4997 9.89998 16.5565 10.0371C16.6133 10.1742 16.7096 10.2914 16.833 10.3738C16.9565 10.4562 17.1016 10.5001 17.25 10.5H21C21.1989 10.5 21.3897 10.421 21.5303 10.2803C21.671 10.1397 21.75 9.94892 21.75 9.75V6C21.75 5.85167 21.706 5.70667 21.6235 5.58335C21.5411 5.46004 21.4239 5.36393 21.2869 5.30719Z" fill="#141414"/>
</svg>
